<svg xmlns="http://www.w3.org/2000/svg" width="32" height="32" viewBox="0 -1 40 40" fill="white" stroke="black" strokeWidth="1" strokeLinecap="round" strokeLinejoin="round">
<rect width="100%" height="100%" fill="white" stroke="white"/>
<path d="M 20 0 L 0 10 L 20 20 L 40 10 L 20 0 Z M 0 28 L 20 38 L 40 28 L 40 26 L 20 36 L 0 26 Z M 0 20 L 20 30 L 40 20 L 40 18 L 20 28 L 0 18 Z M 12 10 L 20 6 L 28 10 L 20 14 Z M 0 10 L 0 12 L 20 22 L 40 12 L 40 10 L 20 20 M 20 8 L 14 11 M 20 8 L 26 11"></path>
</svg>