<svg version="1.1" xmlns="http://www.w3.org/2000/svg" viewBox="0 0 1392.6625447607212 742.4291582901508" width="1392.6625447607212" height="742.4291582901508">
  <!-- svg-source:excalidraw -->
  
  <defs>
    <style class="style-fonts">
      @font-face {
        font-family: "Virgil";
        src: url("https://excalidraw.com/Virgil.woff2");
      }
      @font-face {
        font-family: "Cascadia";
        src: url("https://excalidraw.com/Cascadia.woff2");
      }
    </style>
  </defs>
  <rect x="0" y="0" width="1392.6625447607212" height="742.4291582901508" fill="#ffffff"></rect><g stroke-linecap="round" transform="translate(660.734711493316 10) rotate(0 85.46875 32)"><path d="M14.92 -1.73 L162.68 0.85 L168.17 3.6 L171.1 12.54 L171.02 54.65 L165.1 62.44 L156.54 62.11 L10.48 63.66 L0.38 59.25 L-1.21 52.35 L-1.57 11.37 L4.68 5.74 L10.43 0.1 L15.21 -1.89" stroke="none" stroke-width="0" fill="#fab005"></path><path d="M16 0 M16 0 C56.8 1.6, 97.21 1.81, 154.94 0 M16 0 C62.3 -0.91, 109.33 -0.65, 154.94 0 M154.94 0 C165.22 1.03, 171.5 5.13, 170.94 16 M154.94 0 C163.35 0.58, 170.15 3.2, 170.94 16 M170.94 16 C169.51 23.03, 171.69 31.67, 170.94 48 M170.94 16 C170.06 24.04, 171.49 33.88, 170.94 48 M170.94 48 C169.84 58.6, 164 64, 154.94 64 M170.94 48 C170.19 57.2, 165.81 62.32, 154.94 64 M154.94 64 C126.92 65.47, 97.5 63.45, 16 64 M154.94 64 C105.33 63.94, 54.79 63.99, 16 64 M16 64 C6.29 64.91, 0.81 60.42, 0 48 M16 64 C3.74 64.73, -1.69 57.26, 0 48 M0 48 C1.66 41.26, -0.65 29.76, 0 16 M0 48 C0.28 39.94, 0.97 31.02, 0 16 M0 16 C1.78 5.98, 4.5 0.46, 16 0 M0 16 C-0.69 7.02, 4.21 -1.07, 16 0" stroke="#000000" stroke-width="1" fill="none"></path></g><g transform="translate(669.875336493316 19) rotate(0 76.328125 23)"><text x="76.328125" y="0" font-family="Helvetica, Segoe UI Emoji" font-size="20px" fill="#000000" text-anchor="middle" style="white-space: pre;" direction="ltr" dominant-baseline="text-before-edge">AWS SageMaker</text><text x="76.328125" y="23" font-family="Helvetica, Segoe UI Emoji" font-size="20px" fill="#000000" text-anchor="middle" style="white-space: pre;" direction="ltr" dominant-baseline="text-before-edge">JupyterLab</text></g><g stroke-linecap="round" transform="translate(667.5004353857211 491.0263548259494) rotate(0 85.5 32)"><path d="M16.63 -1.47 L160.78 0.35 L165.47 2.13 L172.16 14.07 L169.1 53.87 L163.96 60.63 L154.98 64.21 L9.56 64.59 L1.66 59.53 L0.9 50.91 L0.71 11.65 L5.47 3.02 L8.07 2.09 L15.85 -1.22" stroke="none" stroke-width="0" fill="#228be6"></path><path d="M16 0 M16 0 C55.52 1.02, 100.24 -1, 155 0 M16 0 C52.51 -1.9, 90.15 -1.37, 155 0 M155 0 C165.32 1.46, 171.97 5.49, 171 16 M155 0 C166.21 1.56, 171.51 6.51, 171 16 M171 16 C170.42 22.85, 171.6 32.16, 171 48 M171 16 C170.76 25.57, 172.11 36.71, 171 48 M171 48 C170.08 57.32, 165.15 64.1, 155 64 M171 48 C172.22 58.17, 166.99 62.12, 155 64 M155 64 C119.5 64.08, 87.53 63.1, 16 64 M155 64 C124.36 64.1, 94.97 65.51, 16 64 M16 64 C4.18 64.76, -1.92 57.31, 0 48 M16 64 C5.34 62.07, 0.43 59.97, 0 48 M0 48 C-0.3 39.12, -0.17 33.22, 0 16 M0 48 C-0.47 40.99, -0.55 32.85, 0 16 M0 16 C-0.42 4.73, 4.05 -1.02, 16 0 M0 16 C1.96 6.85, 3.16 -1.88, 16 0" stroke="#000000" stroke-width="1" fill="none"></path></g><g stroke-linecap="round" transform="translate(494.37054021167035 667.6311807753164) rotate(0 31.5 30.5)"><path d="M13.44 1.74 L52.9 1.53 L55.05 2.84 L61.79 5.14 L63.84 15.91 L63.59 49.43 L61.12 56.95 L55.46 57.09 L45.8 60.47 L12.74 61.29 L6.09 58.11 L0.45 53.82 L0.66 47.68 L2.84 10.16 L7.91 1.16 L16.96 -1.66" stroke="none" stroke-width="0" fill="#228be6"></path><path d="M15.25 0 M15.25 0 C21.88 0.77, 30.42 0.42, 47.75 0 M15.25 0 C23.43 -0.98, 32.86 -0.37, 47.75 0 M47.75 0 C56.37 1.6, 61.43 5.05, 63 15.25 M47.75 0 C58.93 1.99, 62.61 3.4, 63 15.25 M63 15.25 C61.98 26, 62.73 37.43, 63 45.75 M63 15.25 C63.52 21.96, 62.64 29.61, 63 45.75 M63 45.75 C61.68 55.55, 57.87 61.68, 47.75 61 M63 45.75 C62.43 54.45, 56.55 61.43, 47.75 61 M47.75 61 C36.94 60.72, 29.91 61.51, 15.25 61 M47.75 61 C39.67 62.14, 33.35 61.29, 15.25 61 M15.25 61 C4.83 62.39, -0.91 54.8, 0 45.75 M15.25 61 C6.86 61.18, -1.3 53.72, 0 45.75 M0 45.75 C-0.48 39.39, 0.22 31.12, 0 15.25 M0 45.75 C-0.93 35.97, 0.17 26.5, 0 15.25 M0 15.25 C0.62 3.4, 3.74 0.26, 15.25 0 M0 15.25 C-1.65 3.96, 6.2 1.33, 15.25 0" stroke="#000000" stroke-width="1" fill="none"></path></g><g transform="translate(696.8529744482211 500.0263548259494) rotate(0 56.1474609375 23)"><text x="56.1474609375" y="0" font-family="Helvetica, Segoe UI Emoji" font-size="20px" fill="#000000" text-anchor="middle" style="white-space: pre;" direction="ltr" dominant-baseline="text-before-edge">AWS </text><text x="56.1474609375" y="23" font-family="Helvetica, Segoe UI Emoji" font-size="20px" fill="#000000" text-anchor="middle" style="white-space: pre;" direction="ltr" dominant-baseline="text-before-edge">Sub-account</text></g><g transform="translate(508.09221989917035 686.6311807753164) rotate(0 17.7783203125 11.5)"><text x="17.7783203125" y="0" font-family="Helvetica, Segoe UI Emoji" font-size="20px" fill="#000000" text-anchor="middle" style="white-space: pre;" direction="ltr" dominant-baseline="text-before-edge">IAM</text></g><g stroke-linecap="round"><g transform="translate(742.4229447115844 85.24609375000009) rotate(0 1.4542625387887824 53.923190656987046)"><path d="M-0.83 1.01 C-0.11 18.83, 3.03 88.63, 3.74 106.34 M0.93 0.49 C1.57 18.48, 2.66 89.35, 2.96 107.35" stroke="#000000" stroke-width="1" fill="none"></path></g><g transform="translate(742.4229447115844 85.24609375000009) rotate(0 1.4542625387887824 53.923190656987046)"><path d="M-6.08 79.84 C-6.87 86.45, -2.65 92.67, 4.6 108.75 M-7.82 80.26 C-3.81 86.26, -2.34 94.05, 3.4 107.2" stroke="#000000" stroke-width="1" fill="none"></path></g><g transform="translate(742.4229447115844 85.24609375000009) rotate(0 1.4542625387887824 53.923190656987046)"><path d="M14.44 79.51 C8.51 86.06, 7.58 92.37, 4.6 108.75 M12.7 79.93 C11.4 85.99, 7.58 93.86, 3.4 107.2" stroke="#000000" stroke-width="1" fill="none"></path></g></g><mask></mask><g stroke-linecap="round" transform="translate(297.56427043318945 241.01611946202536) rotate(0 85.46875 32)"><path d="M16.61 1.27 L161.96 1.74 L167.14 2.63 L169.69 12.05 L169.2 56.79 L165.15 62.95 L153.3 64.02 L9.59 63.09 L0.52 59.13 L1.96 52.2 L0.19 13 L4.39 3.05 L9.5 0.81 L15.36 1.51" stroke="none" stroke-width="0" fill="#ced4da"></path><path d="M16 0 M16 0 C64.84 0.13, 119.09 0.33, 154.94 0 M16 0 C59.59 1.26, 105.62 1.84, 154.94 0 M154.94 0 C166.85 -1.82, 170.62 3.96, 170.94 16 M154.94 0 C164.64 0.3, 170.95 6.34, 170.94 16 M170.94 16 C172.47 25.99, 170.24 33.84, 170.94 48 M170.94 16 C170.96 26.68, 170.93 35.67, 170.94 48 M170.94 48 C172.65 59.3, 167.21 65.88, 154.94 64 M170.94 48 C169.6 59.02, 167.44 64.47, 154.94 64 M154.94 64 C120.65 63.05, 83.71 64.69, 16 64 M154.94 64 C107.08 63.4, 60.54 64.12, 16 64 M16 64 C6.39 64.02, -1.66 58.98, 0 48 M16 64 C6.53 64.21, -0.15 56.58, 0 48 M0 48 C-0.83 40.25, -1.3 35.75, 0 16 M0 48 C0.03 41.97, -0.48 34.52, 0 16 M0 16 C0.31 6.96, 6.35 -0.83, 16 0 M0 16 C-0.12 3.27, 6.24 -1.47, 16 0" stroke="#000000" stroke-width="1" fill="none"></path></g><g transform="translate(326.16290324568945 250.01611946202536) rotate(0 56.8701171875 23)"><text x="56.8701171875" y="0" font-family="Helvetica, Segoe UI Emoji" font-size="20px" fill="#000000" text-anchor="middle" style="white-space: pre;" direction="ltr" dominant-baseline="text-before-edge">AWS Secret </text><text x="56.8701171875" y="23" font-family="Helvetica, Segoe UI Emoji" font-size="20px" fill="#000000" text-anchor="middle" style="white-space: pre;" direction="ltr" dominant-baseline="text-before-edge">Manager</text></g><g stroke-linecap="round"><g transform="translate(444.084044074937 231.74658821202536) rotate(0 122.0065718262419 -76.89408296938382)"><path d="M-0.72 -0.42 C39.77 -25.81, 201.63 -126.33, 242.53 -151.47 M1.1 -1.69 C41.99 -27.52, 204.16 -128.1, 244.73 -153.37" stroke="#000000" stroke-width="1" fill="none"></path></g><g transform="translate(444.084044074937 231.74658821202536) rotate(0 122.0065718262419 -76.89408296938382)"><path d="M17.09 -25.63 C13.74 -15.87, 9.14 -12.52, -1.38 -1.33 M18.34 -24.74 C10.22 -15.48, 2.94 -5.15, -1.56 -1.38" stroke="#000000" stroke-width="1" fill="none"></path></g><g transform="translate(444.084044074937 231.74658821202536) rotate(0 122.0065718262419 -76.89408296938382)"><path d="M27.93 -8.2 C21.56 -3.16, 14.06 -4.47, -1.38 -1.33 M29.18 -7.31 C16.97 -4.78, 5.46 -1.27, -1.56 -1.38" stroke="#000000" stroke-width="1" fill="none"></path></g><g transform="translate(444.084044074937 231.74658821202536) rotate(0 122.0065718262419 -76.89408296938382)"><path d="M225.5 -131.38 C231.72 -134, 237.01 -143.26, 244.08 -154.28 M226.75 -130.49 C233.54 -140, 240.76 -148.13, 243.9 -154.33" stroke="#000000" stroke-width="1" fill="none"></path></g><g transform="translate(444.084044074937 231.74658821202536) rotate(0 122.0065718262419 -76.89408296938382)"><path d="M214.67 -148.81 C223.9 -146.71, 232.09 -151.31, 244.08 -154.28 M215.92 -147.92 C226.79 -150.7, 238.24 -152.02, 243.9 -154.33" stroke="#000000" stroke-width="1" fill="none"></path></g></g><mask></mask><g mask="url(#mask-IyAJ_pPWV0NQRhPzT_8ab)" stroke-linecap="round"><g transform="translate(477.992703224122 308.06259489872207) rotate(0 88.51760152963845 97.54906281911028)"><path d="M0.64 0.62 C29.65 32.95, 145.94 161.84, 175.21 194.21 M-0.49 -0.1 C28.82 32.33, 148.17 162.52, 177.52 195.2" stroke="#000000" stroke-width="1" fill="none"></path></g><g transform="translate(477.992703224122 308.06259489872207) rotate(0 88.51760152963845 97.54906281911028)"><path d="M28.17 13.44 C14.99 9.81, 5.69 4.97, 2.19 -0.05 M26.69 14.05 C20.14 11.29, 11.59 7.11, 0.29 0.68" stroke="#000000" stroke-width="1" fill="none"></path></g><g transform="translate(477.992703224122 308.06259489872207) rotate(0 88.51760152963845 97.54906281911028)"><path d="M12.92 27.18 C5.69 18.09, 2.35 7.88, 2.19 -0.05 M11.45 27.79 C9.43 21.08, 5.37 12.85, 0.29 0.68" stroke="#000000" stroke-width="1" fill="none"></path></g><g transform="translate(477.992703224122 308.06259489872207) rotate(0 88.51760152963845 97.54906281911028)"><path d="M152.01 179.98 C159.64 187.04, 171.1 193.17, 179.08 194.53 M150.53 180.59 C159.6 186.48, 166.71 190.58, 177.18 195.25" stroke="#000000" stroke-width="1" fill="none"></path></g><g transform="translate(477.992703224122 308.06259489872207) rotate(0 88.51760152963845 97.54906281911028)"><path d="M167.2 166.18 C168.91 178.72, 174.43 190.25, 179.08 194.53 M165.72 166.79 C170.27 176.65, 172.9 184.83, 177.18 195.25" stroke="#000000" stroke-width="1" fill="none"></path></g></g><mask id="mask-IyAJ_pPWV0NQRhPzT_8ab"><rect x="0" y="0" fill="#fff" width="753.9522239699753" height="603.3197692661649"></rect><rect x="521.0662135970488" y="387.2911820824436" fill="#000" width="89.8125" height="36.8" opacity="1"></rect></mask><g transform="translate(521.0662135970488 387.2911820824436) rotate(0 45.444091156711806 18.320475635388817)"><text x="44.90625" y="0" font-family="Helvetica, Segoe UI Emoji" font-size="16px" fill="#000000" text-anchor="middle" style="white-space: pre;" direction="ltr" dominant-baseline="text-before-edge">Restricted to</text><text x="44.90625" y="18.4" font-family="Helvetica, Segoe UI Emoji" font-size="16px" fill="#000000" text-anchor="middle" style="white-space: pre;" direction="ltr" dominant-baseline="text-before-edge">subaccount</text></g><g stroke-linecap="round"><g transform="translate(677.7237505667867 558.0654173259494) rotate(0 -61.60556311280777 53.13331615603744)"><path d="M0.42 0.6 C-20.07 18.02, -102.27 87.72, -122.77 105.08 M-0.82 -0.13 C-21.46 17.4, -103.24 88.76, -123.63 106.4" stroke="#000000" stroke-width="1" fill="none"></path></g><g transform="translate(677.7237505667867 558.0654173259494) rotate(0 -61.60556311280777 53.13331615603744)"><path d="M-108.08 80.45 C-114.18 88.97, -119.26 97.23, -125.22 107.13 M-108.48 80.95 C-112.94 87.55, -117.27 94.65, -123.08 106.41" stroke="#000000" stroke-width="1" fill="none"></path></g><g transform="translate(677.7237505667867 558.0654173259494) rotate(0 -61.60556311280777 53.13331615603744)"><path d="M-94.62 95.94 C-104.99 99.68, -114.27 103.11, -125.22 107.13 M-95.02 96.44 C-103.56 98.62, -111.83 101.18, -123.08 106.41" stroke="#000000" stroke-width="1" fill="none"></path></g></g><mask></mask><g stroke-linecap="round" transform="translate(599.4306173477465 667.7574663765823) rotate(0 31.5 30.5)"><path d="M16.11 -0.96 L51.92 1.25 L55.97 0.92 L59.78 7.62 L64.93 15.28 L64.75 50.19 L61.06 54.44 L56.11 57.63 L48.66 62.64 L9.88 62.53 L5.97 58.55 L0.44 53.41 L-1.69 44.46 L1.97 7.89 L7.35 2.15 L14.12 1.52" stroke="none" stroke-width="0" fill="#228be6"></path><path d="M15.25 0 M15.25 0 C24.57 0.49, 33.36 0.21, 47.75 0 M15.25 0 C24.83 0.61, 36.89 0.28, 47.75 0 M47.75 0 C56.1 1.97, 64.33 5.33, 63 15.25 M47.75 0 C59.88 0.99, 63.18 6.88, 63 15.25 M63 15.25 C62.77 22.65, 64.09 26.87, 63 45.75 M63 15.25 C61.92 27.57, 62.86 38.43, 63 45.75 M63 45.75 C62.59 56.05, 57.53 60.5, 47.75 61 M63 45.75 C64.21 55.49, 59.71 63.19, 47.75 61 M47.75 61 C34.23 59.13, 23.06 61.17, 15.25 61 M47.75 61 C37.51 59.84, 26.42 60.85, 15.25 61 M15.25 61 C4.62 62.23, 1.58 55.25, 0 45.75 M15.25 61 C3.93 62.92, 1.85 55.77, 0 45.75 M0 45.75 C-1.64 34.95, 1.32 26.15, 0 15.25 M0 45.75 C0.6 35.13, -1.01 26.6, 0 15.25 M0 15.25 C0.76 6.95, 4.14 0.19, 15.25 0 M0 15.25 C1.8 5.26, 7.03 -2.02, 15.25 0" stroke="#000000" stroke-width="1" fill="none"></path></g><g transform="translate(610.9208517227465 686.7574663765823) rotate(0 20.009765625 11.5)"><text x="20.009765625" y="0" font-family="Helvetica, Segoe UI Emoji" font-size="20px" fill="#000000" text-anchor="middle" style="white-space: pre;" direction="ltr" dominant-baseline="text-before-edge">SES</text></g><g stroke-linecap="round"><g transform="translate(705.4834474130575 568.3974485759494) rotate(0 -27.044670137340802 43.15308066607645)"><path d="M0.09 0.5 C-8.75 14.69, -45.43 71.42, -54.18 85.61 M-1.32 -0.28 C-9.67 13.98, -43.28 72.14, -51.84 86.58" stroke="#000000" stroke-width="1" fill="none"></path></g><g transform="translate(705.4834474130575 568.3974485759494) rotate(0 -27.044670137340802 43.15308066607645)"><path d="M-45.64 55.91 C-49.24 64.9, -50.3 71.02, -51.56 86.12 M-46.98 57.9 C-47.38 67.66, -49.89 79.24, -52.79 85.89" stroke="#000000" stroke-width="1" fill="none"></path></g><g transform="translate(705.4834474130575 568.3974485759494) rotate(0 -27.044670137340802 43.15308066607645)"><path d="M-27.92 66.26 C-35.21 73.13, -39.92 77.12, -51.56 86.12 M-29.26 68.25 C-36.15 74.21, -45.07 82.05, -52.79 85.89" stroke="#000000" stroke-width="1" fill="none"></path></g></g><mask></mask><g stroke-linecap="round" transform="translate(712.6224191673665 666.0873219936709) rotate(0 31.5 30.5)"><path d="M16.5 -0.38 L49.53 1.7 L55.12 0.73 L62.77 6.6 L64.44 15.19 L64.19 48.35 L58.95 53.39 L58.46 58.71 L49.35 59.65 L11.03 59.35 L6.3 58.77 L3.66 53.92 L1.51 45.11 L-0.05 9.1 L5.06 2.55 L14.97 -0.45" stroke="none" stroke-width="0" fill="#228be6"></path><path d="M15.25 0 M15.25 0 C28.32 1.58, 40.96 -1.51, 47.75 0 M15.25 0 C23.24 -0.09, 30.8 0.75, 47.75 0 M47.75 0 C59.46 0.31, 63.45 3.53, 63 15.25 M47.75 0 C59.65 1.15, 63.2 4.39, 63 15.25 M63 15.25 C61.99 24.53, 62.75 36.96, 63 45.75 M63 15.25 C62.53 22.64, 62.3 29.15, 63 45.75 M63 45.75 C61.1 55.1, 59.6 59.69, 47.75 61 M63 45.75 C64.11 57.2, 58.32 60.29, 47.75 61 M47.75 61 C38.78 61.84, 29.97 61.79, 15.25 61 M47.75 61 C38.58 61.21, 28.51 60.47, 15.25 61 M15.25 61 C4.05 62.17, -1.69 55.48, 0 45.75 M15.25 61 C2.85 62.18, -1.24 54.33, 0 45.75 M0 45.75 C-0.99 38.68, -0.89 29.86, 0 15.25 M0 45.75 C1.18 35.13, 0.19 22.44, 0 15.25 M0 15.25 C0.01 4.74, 3.52 1.16, 15.25 0 M0 15.25 C-2.02 5.58, 4.86 1.49, 15.25 0" stroke="#000000" stroke-width="1" fill="none"></path></g><g transform="translate(731.8909738548665 685.0873219936709) rotate(0 12.2314453125 11.5)"><text x="12.2314453125" y="0" font-family="Helvetica, Segoe UI Emoji" font-size="20px" fill="#000000" text-anchor="middle" style="white-space: pre;" direction="ltr" dominant-baseline="text-before-edge">S3</text></g><g stroke-linecap="round"><g transform="translate(743.9958999282194 565.3271360759494) rotate(0 -0.0777855967769483 47.23159017463837)"><path d="M-0.86 -0.69 C-0.82 15.05, -0.11 79.53, -0.24 95.15 M0.89 1.56 C0.84 16.93, -1.02 78.24, -1.05 93.62" stroke="#000000" stroke-width="1" fill="none"></path></g><g transform="translate(743.9958999282194 565.3271360759494) rotate(0 -0.0777855967769483 47.23159017463837)"><path d="M-11.95 65.68 C-6.23 70.85, -7.21 78.32, -0.51 92.35 M-10.11 64.31 C-8.3 74.01, -4.56 83.73, -0.91 92.89" stroke="#000000" stroke-width="1" fill="none"></path></g><g transform="translate(743.9958999282194 565.3271360759494) rotate(0 -0.0777855967769483 47.23159017463837)"><path d="M8.56 66.05 C8.94 70.97, 2.62 78.35, -0.51 92.35 M10.4 64.68 C5.58 74.41, 2.67 84.02, -0.91 92.89" stroke="#000000" stroke-width="1" fill="none"></path></g></g><mask></mask><g stroke-linecap="round" transform="translate(823.5536394996453 667.4185126582279) rotate(0 31.5 30.5)"><path d="M15.03 -1.59 L52 1.28 L56.61 3.94 L62.65 6.78 L64.11 16.84 L62.03 50.55 L62.51 55.94 L57.96 59.09 L48.36 60.63 L10.44 59.44 L5.54 57.36 L3.15 55.22 L-1.63 44.81 L0.98 7.76 L4.91 1.77 L15.66 0.93" stroke="none" stroke-width="0" fill="#228be6"></path><path d="M15.25 0 M15.25 0 C28.94 0.56, 37.94 0.65, 47.75 0 M15.25 0 C23.73 0.51, 33.68 0.58, 47.75 0 M47.75 0 C59.48 -1.07, 62.3 6.93, 63 15.25 M47.75 0 C57.82 -0.38, 61.59 6.63, 63 15.25 M63 15.25 C63.3 23.64, 61.35 30.49, 63 45.75 M63 15.25 C62.28 22.14, 63.18 29.51, 63 45.75 M63 45.75 C62.57 55.76, 57.35 61.32, 47.75 61 M63 45.75 C63.36 55.83, 56 60.31, 47.75 61 M47.75 61 C35.61 61.83, 23.85 60.8, 15.25 61 M47.75 61 C40.12 62.17, 32.13 61.82, 15.25 61 M15.25 61 C6.9 60.56, 0.19 56, 0 45.75 M15.25 61 C4.08 59.53, -2.12 55.24, 0 45.75 M0 45.75 C-0.11 37.37, -0.01 26.82, 0 15.25 M0 45.75 C1.08 37.72, -0.16 29.1, 0 15.25 M0 15.25 C-0.36 3.69, 5.96 1.76, 15.25 0 M0 15.25 C0.62 7.27, 5.24 1.75, 15.25 0" stroke="#000000" stroke-width="1" fill="none"></path></g><g transform="translate(834.4921160621453 686.4185126582279) rotate(0 20.5615234375 11.5)"><text x="20.5615234375" y="0" font-family="Helvetica, Segoe UI Emoji" font-size="20px" fill="#000000" text-anchor="middle" style="white-space: pre;" direction="ltr" dominant-baseline="text-before-edge">SNS</text></g><g stroke-linecap="round"><g transform="translate(787.2605686783396 562.2880735759494) rotate(0 28.27350775947889 47.02081264536207)"><path d="M1.06 0.32 C10.59 15.74, 47.21 77.52, 56.4 93.02 M0.15 -0.55 C9.7 15.03, 46.76 78.71, 56.05 94.59" stroke="#000000" stroke-width="1" fill="none"></path></g><g transform="translate(787.2605686783396 562.2880735759494) rotate(0 28.27350775947889 47.02081264536207)"><path d="M33.51 77.32 C38.51 81.16, 44.25 83.49, 57.77 95.71 M33.61 74.46 C38.63 79.78, 43.51 83.13, 56.08 94.7" stroke="#000000" stroke-width="1" fill="none"></path></g><g transform="translate(787.2605686783396 562.2880735759494) rotate(0 28.27350775947889 47.02081264536207)"><path d="M51.24 66.97 C52.19 73.35, 53.85 78.06, 57.77 95.71 M51.33 64.11 C52.7 71.49, 53.87 77, 56.08 94.7" stroke="#000000" stroke-width="1" fill="none"></path></g></g><mask></mask><g stroke-linecap="round" transform="translate(927.1633606230628 667.9386372626582) rotate(0 35.00000000000006 32)"><path d="M17.85 1.75 L57.88 1.86 L65.5 2.18 L70 7.36 L70.16 16.23 L68.44 51.18 L66.03 59.52 L62.02 61.37 L53.49 62.5 L14.2 65.27 L3.13 58.42 L1.91 51.79 L-0.06 11.6 L2.5 5.9 L7.14 1.15 L17.02 -0.12" stroke="none" stroke-width="0" fill="#228be6"></path><path d="M16 0 M16 0 C26.24 1.42, 36.27 0.22, 54 0 M16 0 C26.77 -0.85, 36.78 -1.06, 54 0 M54 0 C64 1.2, 70.99 5.34, 70 16 M54 0 C63.47 0.02, 71.36 3.08, 70 16 M70 16 C68.97 26.67, 71.91 41.28, 70 48 M70 16 C69.35 25.88, 70.01 34.11, 70 48 M70 48 C71.24 60.46, 62.91 64.1, 54 64 M70 48 C70.84 58.23, 65.53 63.54, 54 64 M54 64 C42.37 62.46, 30.79 62.86, 16 64 M54 64 C40.99 64.96, 28.92 64.74, 16 64 M16 64 C5.15 64.23, -0.61 57.29, 0 48 M16 64 C5.51 66.16, 1.05 57.59, 0 48 M0 48 C-0.09 43.02, 1.68 36.44, 0 16 M0 48 C0.88 41.5, -0.23 34.99, 0 16 M0 16 C-0.49 5.58, 6.58 1.01, 16 0 M0 16 C-0.84 4.26, 7.4 0.76, 16 0" stroke="#000000" stroke-width="1" fill="none"></path></g><g transform="translate(934.3655090605628 676.9386372626582) rotate(0 27.797851562500057 23)"><text x="27.7978515625" y="0" font-family="Helvetica, Segoe UI Emoji" font-size="20px" fill="#000000" text-anchor="middle" style="white-space: pre;" direction="ltr" dominant-baseline="text-before-edge">Event</text><text x="27.7978515625" y="23" font-family="Helvetica, Segoe UI Emoji" font-size="20px" fill="#000000" text-anchor="middle" style="white-space: pre;" direction="ltr" dominant-baseline="text-before-edge">bridge</text></g><g stroke-linecap="round"><g transform="translate(843.2201506938524 564.8194629501089) rotate(0 41.04448474153725 45.27153206287596)"><path d="M0.96 -0.02 C14.64 14.91, 68.61 75.54, 82.09 90.71 M0 -1.08 C13.62 14.46, 68.13 76.15, 81.72 91.62" stroke="#000000" stroke-width="1" fill="none"></path></g><g transform="translate(843.2201506938524 564.8194629501089) rotate(0 41.04448474153725 45.27153206287596)"><path d="M55.34 79.1 C61.5 82.82, 69.88 85.81, 81.57 90.56 M54.97 77.34 C63.85 82.11, 72.06 87.2, 81.28 92.62" stroke="#000000" stroke-width="1" fill="none"></path></g><g transform="translate(843.2201506938524 564.8194629501089) rotate(0 41.04448474153725 45.27153206287596)"><path d="M70.74 65.53 C72.38 73.47, 76.11 80.57, 81.57 90.56 M70.37 63.77 C73.99 73.04, 77.02 82.7, 81.28 92.62" stroke="#000000" stroke-width="1" fill="none"></path></g></g><mask></mask><g stroke-linecap="round" transform="translate(1026.0746541357212 241.6474485759494) rotate(0 85.46875 32)"><path d="M15.07 -0.16 L163.05 -0.7 L167.46 2.79 L171.31 10.56 L168.13 56.74 L166.47 63.22 L153.09 65.04 L7.57 61.73 L3.52 56.99 L2.01 52.99 L-0.51 13.31 L2.96 4.3 L7.57 2.43 L14.57 -0.55" stroke="none" stroke-width="0" fill="#ced4da"></path><path d="M16 0 M16 0 C60.06 0.12, 107.83 -2.54, 154.94 0 M16 0 C64.35 -0.25, 113.54 -0.22, 154.94 0 M154.94 0 C167.35 1.6, 171 6.12, 170.94 16 M154.94 0 C165.6 0.44, 172.77 5.61, 170.94 16 M170.94 16 C170.9 26.26, 169.01 34.3, 170.94 48 M170.94 16 C170.25 25.92, 171.52 35.8, 170.94 48 M170.94 48 C171.02 58.14, 163.91 65.95, 154.94 64 M170.94 48 C170.83 56.52, 165.42 63.31, 154.94 64 M154.94 64 C125.41 62.96, 91.88 66.01, 16 64 M154.94 64 C122.17 63.69, 87.88 62.91, 16 64 M16 64 C4.05 62.18, 0.02 57.05, 0 48 M16 64 C4.85 65.47, -1.53 59.06, 0 48 M0 48 C-0.69 42.79, -0.34 36.77, 0 16 M0 48 C0.45 38.71, -1.07 28.33, 0 16 M0 16 C0.23 4.76, 7.31 0.53, 16 0 M0 16 C-0.98 7.43, 3.83 1.8, 16 0" stroke="#000000" stroke-width="1" fill="none"></path></g><g transform="translate(1045.9574666357212 250.6474485759494) rotate(0 65.5859375 23)"><text x="65.5859375" y="0" font-family="Helvetica, Segoe UI Emoji" font-size="20px" fill="#000000" text-anchor="middle" style="white-space: pre;" direction="ltr" dominant-baseline="text-before-edge">CodeArchitect </text><text x="65.5859375" y="23" font-family="Helvetica, Segoe UI Emoji" font-size="20px" fill="#000000" text-anchor="middle" style="white-space: pre;" direction="ltr" dominant-baseline="text-before-edge">PIP repository</text></g><g stroke-linecap="round"><g transform="translate(804.9250632570487 80.76171875) rotate(0 117.84673203932942 74.04698839375102)"><path d="M-1.05 0.17 C38.27 24.63, 196.94 122.86, 236.75 147.53 M0.59 -0.79 C39.71 23.78, 196.36 123.81, 235.87 148.89" stroke="#000000" stroke-width="1" fill="none"></path></g><g transform="translate(804.9250632570487 80.76171875) rotate(0 117.84673203932942 74.04698839375102)"><path d="M28.59 6.52 C16.99 5.78, 7.38 0.71, 0.77 -1.14 M28.05 5.91 C17.42 3.39, 6.17 2.66, -0.17 0.9" stroke="#000000" stroke-width="1" fill="none"></path></g><g transform="translate(804.9250632570487 80.76171875) rotate(0 117.84673203932942 74.04698839375102)"><path d="M17.78 23.97 C10.02 16.96, 4.35 5.53, 0.77 -1.14 M17.24 23.35 C10.59 14.14, 3.43 6.81, -0.17 0.9" stroke="#000000" stroke-width="1" fill="none"></path></g><g transform="translate(804.9250632570487 80.76171875) rotate(0 117.84673203932942 74.04698839375102)"><path d="M206.86 142.63 C216.73 147, 228.51 146.53, 237.69 147.58 M206.32 142.02 C217.96 143.78, 228.91 147.83, 236.76 149.62" stroke="#000000" stroke-width="1" fill="none"></path></g><g transform="translate(804.9250632570487 80.76171875) rotate(0 117.84673203932942 74.04698839375102)"><path d="M217.88 125.32 C223.84 135.91, 231.6 141.75, 237.69 147.58 M217.34 124.7 C224.92 133.11, 231.7 143.71, 236.76 149.62" stroke="#000000" stroke-width="1" fill="none"></path></g></g><mask></mask><g mask="url(#mask-nwGl0GW5D5zkTMYXIjgSQ)" stroke-linecap="round"><g transform="translate(1036.8514838331657 319.8193235759494) rotate(0 -95.75852073584849 92.78392038016003)"><path d="M0.12 0.94 C-31.84 31.68, -159.99 153.4, -191.64 183.7 M-1.28 0.39 C-32.89 31.38, -158.04 154.66, -189.51 185.17" stroke="#000000" stroke-width="1" fill="none"></path></g><g transform="translate(1036.8514838331657 319.8193235759494) rotate(0 -95.75852073584849 92.78392038016003)"><path d="M-174.96 156.26 C-180.88 167.73, -186.52 174.94, -188.24 184.2 M-176.27 158.97 C-180.87 168.6, -186.59 177.82, -189.86 186.09" stroke="#000000" stroke-width="1" fill="none"></path></g><g transform="translate(1036.8514838331657 319.8193235759494) rotate(0 -95.75852073584849 92.78392038016003)"><path d="M-160.61 170.93 C-170.87 177.89, -180.93 180.58, -188.24 184.2 M-161.92 173.64 C-171.7 177.7, -182.72 181.5, -189.86 186.09" stroke="#000000" stroke-width="1" fill="none"></path></g></g><mask id="mask-nwGl0GW5D5zkTMYXIjgSQ"><rect x="0" y="0" fill="#fff" width="1327.369632173547" height="603.6301141847239"></rect><rect x="875.7799096629751" y="393.3247188803366" fill="#000" width="131.625" height="36.8" opacity="1"></rect></mask><g transform="translate(875.7799096629752 393.3247188803366) rotate(0 65.31305343434212 19.27852507577282)"><text x="65.8125" y="0" font-family="Helvetica, Segoe UI Emoji" font-size="16px" fill="#000000" text-anchor="middle" style="white-space: pre;" direction="ltr" dominant-baseline="text-before-edge">Libraries stored</text><text x="65.8125" y="18.4" font-family="Helvetica, Segoe UI Emoji" font-size="16px" fill="#000000" text-anchor="middle" style="white-space: pre;" direction="ltr" dominant-baseline="text-before-edge">in private PIP repo</text></g><g transform="translate(214.06293538572106 84.8232298259494) rotate(0 137.3193359375 46)"><text x="0" y="0" font-family="Helvetica, Segoe UI Emoji" font-size="20px" fill="#000000" text-anchor="start" style="white-space: pre;" direction="ltr" dominant-baseline="text-before-edge">1. Developers build integration</text><text x="0" y="23" font-family="Helvetica, Segoe UI Emoji" font-size="20px" fill="#000000" text-anchor="start" style="white-space: pre;" direction="ltr" dominant-baseline="text-before-edge">pipelines in Python Jupyter </text><text x="0" y="46" font-family="Helvetica, Segoe UI Emoji" font-size="20px" fill="#000000" text-anchor="start" style="white-space: pre;" direction="ltr" dominant-baseline="text-before-edge">notebooks running in a shared </text><text x="0" y="69" font-family="Helvetica, Segoe UI Emoji" font-size="20px" fill="#000000" text-anchor="start" style="white-space: pre;" direction="ltr" dominant-baseline="text-before-edge">instance of SageMaker</text></g><g transform="translate(1044.6644978857212 83.8193235759494) rotate(0 168.9990234375 57.5)"><text x="0" y="0" font-family="Helvetica, Segoe UI Emoji" font-size="20px" fill="#000000" text-anchor="start" style="white-space: pre;" direction="ltr" dominant-baseline="text-before-edge">2. Once pipelines are working</text><text x="0" y="23" font-family="Helvetica, Segoe UI Emoji" font-size="20px" fill="#000000" text-anchor="start" style="white-space: pre;" direction="ltr" dominant-baseline="text-before-edge">as expected, we have a Python CLI </text><text x="0" y="46" font-family="Helvetica, Segoe UI Emoji" font-size="20px" fill="#000000" text-anchor="start" style="white-space: pre;" direction="ltr" dominant-baseline="text-before-edge">application running on our SageMaker</text><text x="0" y="69" font-family="Helvetica, Segoe UI Emoji" font-size="20px" fill="#000000" text-anchor="start" style="white-space: pre;" direction="ltr" dominant-baseline="text-before-edge">instance that pushes the notebook to </text><text x="0" y="92" font-family="Helvetica, Segoe UI Emoji" font-size="20px" fill="#000000" text-anchor="start" style="white-space: pre;" direction="ltr" dominant-baseline="text-before-edge">an API.</text></g><g stroke-linecap="round" transform="translate(636.1176228857211 206.7451048259494) rotate(0 112.5 72.5)"><path d="M33.47 0.3 L194.43 0.01 L202.01 -0.02 L213.77 4.59 L218.96 10.88 L222.36 19.64 L226.2 31.56 L223.48 112.81 L225.91 120.24 L218.73 134.42 L214.11 142.34 L206.01 142.48 L192.1 143.97 L30.06 145.19 L22.52 142.92 L13.9 140.44 L5.8 134.18 L0.38 119.31 L-0.8 24.9 L3.16 19.05 L6.79 8.46 L19.71 1.12 L32.94 1.89" stroke="none" stroke-width="0" fill="#40c057"></path><path d="M32 0 M32 0 C69.68 -0.9, 110.98 -0.47, 193 0 M32 0 C80.04 0.15, 127.6 0.94, 193 0 M193 0 C214.48 -1.21, 223.91 10.44, 225 32 M193 0 C216.3 0.35, 223.27 11.54, 225 32 M225 32 C227.54 59.05, 226.98 86.55, 225 113 M225 32 C226.68 62.43, 225.03 91.08, 225 113 M225 113 C224.83 133.79, 216.23 146.45, 193 145 M225 113 C224.85 133.14, 212.08 143.28, 193 145 M193 145 C143.04 145.03, 93.34 145.31, 32 145 M193 145 C155.73 145.78, 118.32 145.99, 32 145 M32 145 C10.47 144.75, 1.53 133.26, 0 113 M32 145 C12.21 142.85, 1.35 135.06, 0 113 M0 113 C-2.2 85.79, 0.19 59.42, 0 32 M0 113 C0.55 89.51, -0.04 64.49, 0 32 M0 32 C1.88 11.13, 8.91 -0.68, 32 0 M0 32 C-2.04 10.83, 11.66 1.81, 32 0" stroke="#000000" stroke-width="1" fill="none"></path></g><g transform="translate(657.4701619482211 221.7451048259494) rotate(0 91.1474609375 57.5)"><text x="91.1474609375" y="0" font-family="Helvetica, Segoe UI Emoji" font-size="20px" fill="#000000" text-anchor="middle" style="white-space: pre;" direction="ltr" dominant-baseline="text-before-edge">API</text><text x="91.1474609375" y="23" font-family="Helvetica, Segoe UI Emoji" font-size="20px" fill="#000000" text-anchor="middle" style="white-space: pre;" direction="ltr" dominant-baseline="text-before-edge">(Serverless function </text><text x="91.1474609375" y="46" font-family="Helvetica, Segoe UI Emoji" font-size="20px" fill="#000000" text-anchor="middle" style="white-space: pre;" direction="ltr" dominant-baseline="text-before-edge">that creates </text><text x="91.1474609375" y="69" font-family="Helvetica, Segoe UI Emoji" font-size="20px" fill="#000000" text-anchor="middle" style="white-space: pre;" direction="ltr" dominant-baseline="text-before-edge">cloudformation </text><text x="91.1474609375" y="92" font-family="Helvetica, Segoe UI Emoji" font-size="20px" fill="#000000" text-anchor="middle" style="white-space: pre;" direction="ltr" dominant-baseline="text-before-edge">templates)</text></g><g mask="url(#mask-xs2CRkwVm2dgLC9HXAHJ7)" stroke-linecap="round"><g transform="translate(749.0079076619996 362.9990110759494) rotate(0 1.4206335518327364 59.45620755967681)"><path d="M-0.93 1.12 C-0.22 20.49, 3.05 97.47, 3.77 116.95 M0.79 0.67 C1.43 20.13, 2.84 99.01, 3.16 118.24" stroke="#000000" stroke-width="1" fill="none"></path></g><g transform="translate(749.0079076619996 362.9990110759494) rotate(0 1.4206335518327364 59.45620755967681)"><path d="M-5.72 91.33 C-5.4 98.07, -0.75 104.98, 1.75 119.58 M-8.58 89.57 C-4.84 99.06, 0.41 109.71, 3.58 117.69" stroke="#000000" stroke-width="1" fill="none"></path></g><g transform="translate(749.0079076619996 362.9990110759494) rotate(0 1.4206335518327364 59.45620755967681)"><path d="M14.8 90.97 C9.77 97.64, 9.06 104.64, 1.75 119.58 M11.94 89.2 C8.68 98.91, 6.94 109.69, 3.58 117.69" stroke="#000000" stroke-width="1" fill="none"></path></g></g><mask id="mask-xs2CRkwVm2dgLC9HXAHJ7"><rect x="0" y="0" fill="#fff" width="852.1203302765078" height="580.4247923259494"></rect><rect x="709.6461502192537" y="403.3119017009494" fill="#000" width="81.8359375" height="36.8" opacity="1"></rect></mask><g transform="translate(709.6461502192536 403.3119017009493) rotate(0 40.782390994578634 19.14331693467679)"><text x="40.91796875" y="0" font-family="Helvetica, Segoe UI Emoji" font-size="16px" fill="#000000" text-anchor="middle" style="white-space: pre;" direction="ltr" dominant-baseline="text-before-edge">Deploy to </text><text x="40.91796875" y="18.4" font-family="Helvetica, Segoe UI Emoji" font-size="16px" fill="#000000" text-anchor="middle" style="white-space: pre;" direction="ltr" dominant-baseline="text-before-edge">subaccount</text></g><g transform="translate(10.000000000000014 440.95273349963315) rotate(0 198.4228515625 57.5)"><text x="0" y="0" font-family="Helvetica, Segoe UI Emoji" font-size="20px" fill="#000000" text-anchor="start" style="white-space: pre;" direction="ltr" dominant-baseline="text-before-edge">3. Using CloudFormation, the API creates </text><text x="0" y="23" font-family="Helvetica, Segoe UI Emoji" font-size="20px" fill="#000000" text-anchor="start" style="white-space: pre;" direction="ltr" dominant-baseline="text-before-edge">a sub-account on AWS for the customer </text><text x="0" y="46" font-family="Helvetica, Segoe UI Emoji" font-size="20px" fill="#000000" text-anchor="start" style="white-space: pre;" direction="ltr" dominant-baseline="text-before-edge">(if it doesn't exist) and the creates / updates</text><text x="0" y="69" font-family="Helvetica, Segoe UI Emoji" font-size="20px" fill="#000000" text-anchor="start" style="white-space: pre;" direction="ltr" dominant-baseline="text-before-edge">IAM roles, email, object storage, notifications</text><text x="0" y="92" font-family="Helvetica, Segoe UI Emoji" font-size="20px" fill="#000000" text-anchor="start" style="white-space: pre;" direction="ltr" dominant-baseline="text-before-edge">and events.</text></g><g stroke-linecap="round" transform="translate(1037.4761078540755 665.8031546677214) rotate(0 44.5 30)"><path d="M13.52 -1.04 L73.91 0.45 L82.72 3.83 L84.98 6.16 L88.03 12.31 L87.94 44.28 L86.71 55.24 L83.39 59.3 L75.07 59.23 L13.38 61.61 L4.28 59.74 L0.42 53.83 L1.14 48 L-0.17 9.87 L4.87 4.31 L6.83 2.27 L16.28 1.42" stroke="none" stroke-width="0" fill="#228be6"></path><path d="M15 0 M15 0 C37.26 0.35, 57.96 -1.59, 74 0 M15 0 C31.42 -0.56, 46.85 0.12, 74 0 M74 0 C85.06 -1.89, 87.01 3.43, 89 15 M74 0 C85.95 -0.4, 87.12 7.22, 89 15 M89 15 C89.66 25.6, 91.07 37.5, 89 45 M89 15 C89.23 26.17, 89.72 35.31, 89 45 M89 45 C89.01 54.97, 83.17 61.1, 74 60 M89 45 C90.67 53.5, 86 61.15, 74 60 M74 60 C56.03 58.94, 36.44 59.49, 15 60 M74 60 C57.23 60.31, 41.6 60.1, 15 60 M15 60 C6.86 58.48, 0.24 55.45, 0 45 M15 60 C6.05 61.39, 2 54.8, 0 45 M0 45 C-0.34 38.77, -1.33 31.15, 0 15 M0 45 C-0.29 33.05, -1.04 23.98, 0 15 M0 15 C1.36 3.71, 4.97 -1.95, 15 0 M0 15 C-1.96 5.98, 6.7 1.94, 15 0" stroke="#000000" stroke-width="1" fill="none"></path></g><g transform="translate(1045.8384125415755 684.3031546677214) rotate(0 36.1376953125 11.5)"><text x="36.1376953125" y="0" font-family="Helvetica, Segoe UI Emoji" font-size="20px" fill="#000000" text-anchor="middle" style="white-space: pre;" direction="ltr" dominant-baseline="text-before-edge">Lambda</text></g><g stroke-linecap="round"><g transform="translate(850.5121541357212 543.0686177112104) rotate(0 104.23789607866388 56.29583859957734)"><path d="M-0.19 0.88 C34.82 19.63, 175.27 93.75, 210.22 112.3 M-1.75 0.29 C33.09 18.7, 174.28 91.5, 209.32 110.39" stroke="#000000" stroke-width="1" fill="none"></path></g><g transform="translate(850.5121541357212 543.0686177112104) rotate(0 104.23789607866388 56.29583859957734)"><path d="M181.05 106.5 C189.6 106.69, 198.73 107.25, 207.89 111.17 M180.38 106.21 C185.34 107.13, 192.38 108.94, 208.57 110.21" stroke="#000000" stroke-width="1" fill="none"></path></g><g transform="translate(850.5121541357212 543.0686177112104) rotate(0 104.23789607866388 56.29583859957734)"><path d="M190.6 88.33 C196.11 94.22, 202.24 100.49, 207.89 111.17 M189.93 88.05 C192.94 92.74, 197.99 98.32, 208.57 110.21" stroke="#000000" stroke-width="1" fill="none"></path></g></g><mask></mask><g stroke-linecap="round" transform="translate(388.89704337622777 671.4291582901508) rotate(0 31.5 30.5)"><path d="M14.47 0.05 L49.96 0.89 L56.41 0.8 L61.59 5.51 L63.77 14.67 L64.46 48.69 L60.31 55.08 L58.2 58.99 L46.41 59.92 L9.68 59.43 L6.87 58.1 L0.5 55.57 L-0.02 46.7 L0.58 8.57 L6.81 2.84 L13.68 0.12" stroke="none" stroke-width="0" fill="#228be6"></path><path d="M15.25 0 M15.25 0 C25.42 0.58, 34.92 -0.32, 47.75 0 M15.25 0 C21.91 -0.57, 29.62 0.25, 47.75 0 M47.75 0 C57.47 -1.42, 62.41 3.37, 63 15.25 M47.75 0 C59.49 -2.23, 61.2 3.36, 63 15.25 M63 15.25 C61.54 26.85, 64.51 35.19, 63 45.75 M63 15.25 C62.3 26.5, 62.63 37.42, 63 45.75 M63 45.75 C62.9 55.59, 57.03 62.52, 47.75 61 M63 45.75 C64.2 57.11, 56.08 61.95, 47.75 61 M47.75 61 C35.25 62.02, 23.08 60.98, 15.25 61 M47.75 61 C38.26 61.61, 30.13 61.46, 15.25 61 M15.25 61 C4.59 60.59, 0.59 57.39, 0 45.75 M15.25 61 C6.89 62.49, 0.47 53.81, 0 45.75 M0 45.75 C1.58 36.38, -0.66 21.74, 0 15.25 M0 45.75 C0.21 33.5, 0.62 20.85, 0 15.25 M0 15.25 C1.31 3.63, 4.72 1.24, 15.25 0 M0 15.25 C0.14 5.43, 4.46 2.16, 15.25 0" stroke="#000000" stroke-width="1" fill="none"></path></g><g transform="translate(399.28376212622777 678.9291582901508) rotate(0 21.11328125 23)"><text x="21.11328125" y="0" font-family="Helvetica, Segoe UI Emoji" font-size="20px" fill="#000000" text-anchor="middle" style="white-space: pre;" direction="ltr" dominant-baseline="text-before-edge">RDS</text><text x="21.11328125" y="23" font-family="Helvetica, Segoe UI Emoji" font-size="20px" fill="#000000" text-anchor="middle" style="white-space: pre;" direction="ltr" dominant-baseline="text-before-edge">DB</text></g><g stroke-linecap="round"><g transform="translate(659.0985860977466 545.7533275939483) rotate(0 -108.04669298490495 58.24686593782491)"><path d="M-0.21 0.34 C-35.94 19.69, -179.4 97.87, -215.44 117.02 M-1.78 -0.53 C-37.49 18.39, -179.96 95.85, -215.89 115.28" stroke="#000000" stroke-width="1" fill="none"></path></g><g transform="translate(659.0985860977466 545.7533275939483) rotate(0 -108.04669298490495 58.24686593782491)"><path d="M-195.43 94.43 C-198.88 97.42, -206.05 100.97, -215.05 116.45 M-195.4 93.04 C-204.06 101.22, -212.03 109.66, -216.42 115.99" stroke="#000000" stroke-width="1" fill="none"></path></g><g transform="translate(659.0985860977466 545.7533275939483) rotate(0 -108.04669298490495 58.24686593782491)"><path d="M-185.65 112.47 C-191.32 111.59, -200.58 111.29, -215.05 116.45 M-185.62 111.08 C-198.05 112.31, -209.76 113.86, -216.42 115.99" stroke="#000000" stroke-width="1" fill="none"></path></g></g><mask></mask></svg>